HIERARCHY
ROOT Hips
{
	OFFSET 0.00000 0.00000 0.00000
	CHANNELS 6 Xposition Yposition Zposition Zrotation Yrotation Xrotation 
	JOINT LHipJoint
	{
		OFFSET 0 0 0
		CHANNELS 3 Zrotation Yrotation Xrotation
		JOINT LeftHip
		{
			OFFSET 1.49846 -1.74315 1.08250
			CHANNELS 3 Zrotation Yrotation Xrotation
			JOINT LeftKnee
			{
				OFFSET 2.40966 -6.62050 0.00000
				CHANNELS 3 Zrotation Yrotation Xrotation
				JOINT LeftAnkle
				{
					OFFSET 2.68066 -7.36505 0.00000
					CHANNELS 3 Zrotation Yrotation Xrotation
					JOINT LeftToe
					{
						OFFSET 0.14291 -0.39265 2.35870
						CHANNELS 3 Zrotation Yrotation Xrotation
						End Site
						{
							OFFSET 0.00000 -0.00000 1.20470
						}
					}
				}
			}
		}
	}
	JOINT RHipJoint
	{
		OFFSET 0 0 0
		CHANNELS 3 Zrotation Yrotation Xrotation
		JOINT RightHip
		{
			OFFSET -1.46318 -1.74316 1.08250
			CHANNELS 3 Zrotation Yrotation Xrotation
			JOINT RightKnee
			{
				OFFSET -2.39759 -6.58734 0.00000
				CHANNELS 3 Zrotation Yrotation Xrotation
				JOINT RightAnkle
				{
					OFFSET -2.63570 -7.24154 0.00000
					CHANNELS 3 Zrotation Yrotation Xrotation
					JOINT RightToe
					{
						OFFSET -0.17578 -0.48294 2.47180
						CHANNELS 3 Zrotation Yrotation Xrotation
						End Site
						{
							OFFSET -0.00000 -0.00000 1.26600
						}
					}
				}
			}
		}
	}
	JOINT lowerback
	{
		OFFSET 0 0 0
		CHANNELS 3 Zrotation Yrotation Xrotation
		JOINT Chest
		{
			OFFSET 0.00843 2.19877 -0.20423
			CHANNELS 3 Zrotation Yrotation Xrotation
			JOINT Chest2
			{
				OFFSET -0.03080 2.21436 -0.05138
				CHANNELS 3 Zrotation Yrotation Xrotation
				JOINT lowerneck
				{
					OFFSET 0 0 0
					CHANNELS 3 Zrotation Yrotation Xrotation
					JOINT Neck
					{
						OFFSET -0.04063 1.58841 0.30440
						CHANNELS 3 Zrotation Yrotation Xrotation
						JOINT Head
						{
							OFFSET 0.09277 1.59484 -0.39337
							CHANNELS 3 Zrotation Yrotation Xrotation
							End Site
							{
								OFFSET 0.03488 1.66530 -0.17040
							}
						}
					}
				}
				JOINT LeftCollar
				{
					OFFSET 0 0 0
					CHANNELS 3 Zrotation Yrotation Xrotation
					JOINT LeftShoulder
					{
						OFFSET 3.03849 1.31522 0.02556
CHANNELS 3 Zrotation Xrotation Yrotation
						JOINT LeftElbow
						{
OFFSET 0 -5.255370 0.000000
CHANNELS 3 Zrotation Xrotation Yrotation
							JOINT LeftWrist
							{
OFFSET 0 -3.388550 -0.000000
CHANNELS 3 Zrotation Xrotation Yrotation
								JOINT lhand
								{
									OFFSET 0 0 0
CHANNELS 3 Zrotation Xrotation Yrotation
									JOINT LFingers
									{
OFFSET 0 -0.614520 0.000000
CHANNELS 3 Zrotation Xrotation Yrotation
										End Site
										{
OFFSET 0 -0.495440 0.000000
										}
									}
								}
								JOINT LThumb
								{
OFFSET 0 0.000000 0.000000
CHANNELS 3 Zrotation Xrotation Yrotation
									End Site
									{
OFFSET 0 -0.503000 0.503000
									}
								}
							}
						}
					}
				}
				JOINT RightCollar
				{
					OFFSET 0 0 0
					CHANNELS 3 Zrotation Yrotation Xrotation
					JOINT RightShoulder
					{
						OFFSET -3.06926 1.12091 -0.13185
CHANNELS 3 Zrotation Xrotation Yrotation
						JOINT RightElbow
						{
OFFSET 0 -5.381830 0.000000
CHANNELS 3 Zrotation Xrotation Yrotation
							JOINT RightWrist
							{
OFFSET 0 -3.169880 0.000000
CHANNELS 3 Zrotation Xrotation Yrotation
								JOINT rhand
								{
									OFFSET 0 0 0
CHANNELS 3 Zrotation Xrotation Yrotation
									JOINT RFingers
									{
OFFSET 0 -0.637680 0.000000
CHANNELS 3 Zrotation Xrotation Yrotation
										End Site
										{
OFFSET 0 -0.514110 0.000000
										}
									}
								}
								JOINT RThumb
								{
OFFSET 0 0.000000 0.000000
CHANNELS 3 Zrotation Xrotation Yrotation
									End Site
									{
OFFSET 0 -0.521960 0.521960
									}
								}
							}
						}
					}
				}
			}
		}
	}
}
MOTION
Frames: 9
Frame Time: 0.008333333333333333
5.949800 17.231800 -30.441200 2.415900 -0.357100 3.030700 0.000000 0.000000 0.000000 -20.254000 -24.462200 -5.444400 3.399000 11.314500 33.348000 0.502500 17.844200 -29.178400 0.029300 1.105400 3.038800 0.000000 0.000000 0.000000 17.898900 31.337600 -1.893800 -3.896200 -12.021000 35.806400 -4.435900 -18.542500 -48.784000 -0.518000 -4.613000 12.808100 -1.292700 -0.600300 -3.374500 -2.521200 -0.577700 4.302100 -1.953900 -0.279700 6.355000 -6.869500 -3.324700 -17.514500 8.945200 -4.951300 21.794200 3.636500 -1.822100 10.255000 0.000000 0.000000 0.000000 66.498500 9.100900 7.537300 13.590300 -22.146100 2.671700 17.350500 18.780600 1.059300 0.000000 0.000000 0.000000 -7.125000 0.000000 0.000000 -7.174200 28.838900 -2.844300 0.000000 0.000000 0.000000 -68.417200 5.167600 -4.239400 -14.318800 -23.188600 -2.952500 -8.326100 -1.271000 -7.779300 0.000000 0.000000 0.000000 7.125000 0.000000 -0.000000 13.401700 22.181500 7.553800
5.935478 17.233436 -30.453550 2.436293 -0.306249 3.002950 0.000000 0.000000 0.000000 -20.052083 -23.890028 -5.755305 3.393186 11.305878 33.318592 0.508393 17.399073 -28.698549 0.026714 1.055362 2.901087 0.000000 0.000000 0.000000 17.811713 31.025817 -2.049824 -3.884743 -12.005400 35.751249 -4.318999 -18.701508 -48.454967 -0.486971 -4.474527 12.415696 -1.418259 -0.643236 -3.265477 -2.535750 -0.632344 4.209206 -1.899592 -0.312601 6.193755 -7.129020 -3.298050 -18.089424 9.216854 -4.774405 20.457631 3.771538 -1.728156 9.885181 0.000000 0.000000 0.000000 66.247547 9.380047 7.546316 13.231080 -21.624820 2.537776 17.167955 19.910257 1.527192 0.000000 0.000000 0.000000 -7.125000 0.000000 0.000000 -7.284321 28.352893 -2.973218 0.000000 0.000000 0.000000 -68.317363 5.604608 -4.007346 -14.349708 -23.232480 -2.964636 -8.391185 -1.321469 -7.893615 0.000000 0.000000 0.000000 7.125000 0.000000 0.000000 13.345936 22.067456 7.556379
5.922828 17.235357 -30.465415 2.494733 -0.301827 3.021401 0.000000 0.000000 0.000000 -20.006131 -23.756769 -5.876988 3.380756 11.287285 33.255096 0.499086 17.316854 -28.534782 0.027372 1.067575 2.934768 0.000000 0.000000 0.000000 17.520584 30.492345 -2.457376 -3.882586 -12.002557 35.740886 -4.131134 -18.785034 -47.809327 -0.443198 -4.271432 11.841626 -1.434587 -0.648972 -3.293787 -2.562401 -0.637472 4.181470 -1.918643 -0.315229 6.180628 -7.264630 -3.303099 -18.556107 9.297400 -4.640680 19.210572 3.813386 -1.666612 9.526986 0.000000 0.000000 0.000000 66.064980 9.577463 7.738208 12.906720 -21.150401 2.419511 16.463737 20.659699 1.522261 0.000000 0.000000 0.000000 -7.125000 0.000000 0.000000 -7.827903 28.359312 -3.197488 0.000000 0.000000 0.000000 -68.256113 6.003215 -3.974677 -14.308715 -23.174286 -2.948500 -8.371643 -1.333166 -7.993083 0.000000 0.000000 0.000000 7.125000 0.000000 0.000000 13.351872 21.970103 7.590514
5.912007 17.240565 -30.484823 2.631020 -0.079856 3.021426 0.000000 0.000000 0.000000 -19.994647 -23.505211 -6.063088 3.353634 11.246598 33.116136 0.476000 17.077377 -28.084995 0.023878 0.997233 2.741301 0.000000 0.000000 0.000000 16.999859 29.447111 -3.106471 -3.884471 -12.005057 35.749771 -3.864957 -18.838076 -46.832542 -0.380111 -3.959635 10.963093 -1.439391 -0.731632 -3.173935 -2.574186 -0.754098 4.070792 -1.933652 -0.373231 5.991940 -7.391966 -3.262224 -18.544229 9.359352 -4.483578 18.140909 3.856065 -1.605207 9.144035 0.000000 0.000000 0.000000 65.868915 9.859201 7.757250 12.735651 -20.898655 2.358155 16.199335 21.000758 0.913373 0.000000 0.000000 0.000000 -7.125000 0.000000 0.000000 -8.077315 28.987433 -3.179736 0.000000 0.000000 0.000000 -68.254353 6.380335 -3.763807 -14.290482 -23.148481 -2.941320 -8.388303 -1.588413 -7.848852 0.000000 0.000000 0.000000 7.125000 0.000000 0.000000 13.351525 22.111648 7.545901
5.902742 17.245729 -30.505916 2.795599 0.317161 2.940678 0.000000 0.000000 0.000000 -19.955755 -22.968025 -6.341809 3.326413 11.205626 32.976407 0.457914 16.537596 -27.314353 0.015256 0.797795 2.192591 0.000000 0.000000 0.000000 16.459756 28.115982 -3.725513 -3.882957 -12.003014 35.742700 -3.627205 -18.707917 -45.814113 -0.333713 -3.712478 10.269206 -1.452549 -0.824709 -2.851741 -2.579513 -0.887412 4.073770 -1.936095 -0.439992 5.807060 -7.364352 -3.349576 -19.350801 9.324689 -4.541632 17.960739 3.826410 -1.615229 9.232376 0.000000 0.000000 0.000000 65.781396 9.789328 7.900983 12.619622 -20.727362 2.316926 16.199485 21.032988 0.905006 0.000000 0.000000 0.000000 -7.125000 0.000000 0.000000 -8.077931 28.995980 -3.178342 0.000000 0.000000 0.000000 -68.196430 6.550317 -3.990129 -14.183676 -22.996701 -2.899482 -8.305698 -1.658070 -7.791235 0.000000 0.000000 0.000000 7.125000 0.000000 0.000000 13.415201 22.170194 7.565445
5.893078 17.246543 -30.520322 2.964273 0.876027 2.818775 0.000000 0.000000 0.000000 -19.907377 -22.314379 -6.670013 3.314857 11.188115 32.917001 0.457429 15.782231 -26.427138 0.006114 0.505583 1.389314 0.000000 0.000000 0.000000 16.294186 27.538002 -3.732428 -3.881050 -12.000392 35.733462 -3.654876 -18.612205 -45.856293 -0.341704 -3.756337 10.392171 -1.578959 -0.999000 -2.710591 -2.478918 -1.124469 4.023314 -1.774350 -0.565453 5.671862 -7.358021 -3.403285 -20.025359 9.150490 -4.571536 18.458614 3.768810 -1.626996 9.525253 0.000000 0.000000 0.000000 65.695268 9.810158 7.865454 12.533988 -20.600600 2.286698 16.130762 21.183814 0.541789 0.000000 0.000000 0.000000 -7.125000 0.000000 0.000000 -8.160087 29.370125 -3.137915 0.000000 0.000000 0.000000 -68.330223 6.593571 -3.940274 -14.118539 -22.903952 -2.874070 -8.352261 -1.800746 -7.669416 0.000000 0.000000 0.000000 7.125000 0.000000 0.000000 13.391913 22.288770 7.514131
5.883328 17.242899 -30.525114 3.057449 1.442160 2.711234 0.000000 0.000000 0.000000 -19.808665 -21.795473 -6.983388 3.328002 11.208059 32.984765 0.478531 15.041788 -25.742888 0.001271 0.231358 0.635677 0.000000 0.000000 0.000000 16.622809 28.005170 -3.081207 -3.875186 -11.992386 35.705043 -3.971831 -18.619790 -47.094422 -0.411207 -4.116332 11.404233 -1.678491 -1.130694 -2.698689 -2.360319 -1.300954 4.038923 -1.608688 -0.659849 5.683096 -7.258043 -3.548330 -21.057666 8.995083 -4.768254 19.363771 3.684976 -1.695766 10.044631 0.000000 0.000000 0.000000 65.629997 9.613343 7.891864 12.563883 -20.644874 2.297204 16.327187 21.004971 0.945150 0.000000 0.000000 0.000000 -7.125000 0.000000 0.000000 -7.975818 28.955062 -3.145311 0.000000 0.000000 0.000000 -68.331362 6.528380 -4.216892 -14.065822 -22.828733 -2.853569 -8.331218 -1.794975 -7.812948 0.000000 0.000000 0.000000 7.125000 0.000000 0.000000 13.395301 22.148280 7.560408
5.874499 17.238350 -30.523750 3.099154 1.796226 2.642894 0.000000 0.000000 0.000000 -19.787603 -21.712007 -7.043895 3.340751 11.227251 33.050305 0.491399 14.746445 -25.512090 0.000350 0.122287 0.335964 0.000000 0.000000 0.000000 16.950624 28.472477 -2.542712 -3.875250 -11.992500 35.705401 -4.243716 -18.593809 -48.105364 -0.470952 -4.401411 12.208730 -1.740358 -1.199955 -2.817219 -2.259691 -1.394957 3.905531 -1.476637 -0.711204 5.613191 -7.225010 -3.676016 -21.678403 8.926260 -4.985528 20.508733 3.645154 -1.776960 10.589162 0.000000 0.000000 0.000000 65.582995 9.660266 7.487852 12.730122 -20.890483 2.356158 16.538490 20.603926 1.405701 0.000000 0.000000 0.000000 -7.125000 0.000000 0.000000 -7.778454 28.479697 -3.154612 0.000000 0.000000 0.000000 -68.210923 6.486189 -4.231586 -14.074254 -22.840705 -2.856851 -8.495486 -1.894415 -7.897550 0.000000 0.000000 0.000000 7.125000 0.000000 0.000000 13.271074 22.060949 7.513685
5.866542 17.235171 -30.520157 3.115084 1.883686 2.562672 0.000000 0.000000 0.000000 -19.840922 -21.842817 -6.881957 3.342786 11.230372 33.060801 0.493499 14.797979 -25.587686 0.000500 0.147588 0.405349 0.000000 0.000000 0.000000 17.042978 28.441003 -2.408766 -3.880015 -11.998986 35.728417 -4.270939 -18.612008 -48.218511 -0.474642 -4.418439 12.256931 -1.778513 -1.194994 -2.955785 -2.215155 -1.386906 3.796165 -1.409512 -0.709596 5.579558 -7.289127 -3.841310 -22.361730 9.017027 -5.273697 21.784448 3.672682 -1.875500 11.220849 0.000000 0.000000 0.000000 65.494945 9.653612 7.452055 12.886372 -21.120536 2.412205 16.436202 20.646686 1.546274 0.000000 0.000000 0.000000 -7.125000 0.000000 0.000000 -7.847382 28.334655 -3.210288 0.000000 0.000000 0.000000 -67.892829 6.483251 -3.614041 -14.180744 -22.992451 -2.898292 -9.271102 -2.455419 -7.595872 0.000000 0.000000 0.000000 7.125000 0.000000 0.000000 12.738576 22.338352 7.113848
